<svg width="30" height="30" viewBox="0 0 30 30" fill="none" xmlns="http://www.w3.org/2000/svg">
<path d="M25 5H5C3.625 5 2.5125 6.125 2.5125 7.5L2.5 22.5C2.5 23.875 3.625 25 5 25H25C26.375 25 27.5 23.875 27.5 22.5V7.5C27.5 6.125 26.375 5 25 5ZM24.5 10.3125L15.6625 15.8375C15.2625 16.0875 14.7375 16.0875 14.3375 15.8375L5.5 10.3125C5.37466 10.2421 5.2649 10.1471 5.17736 10.0331C5.08982 9.91906 5.02633 9.78847 4.99072 9.64921C4.95511 9.50995 4.94813 9.36492 4.9702 9.22288C4.99226 9.08085 5.04292 8.94477 5.1191 8.82288C5.19528 8.70099 5.29541 8.59582 5.41341 8.51374C5.53141 8.43167 5.66484 8.37439 5.80562 8.34537C5.9464 8.31636 6.0916 8.31621 6.23244 8.34494C6.37328 8.37366 6.50683 8.43067 6.625 8.5125L15 13.75L23.375 8.5125C23.4932 8.43067 23.6267 8.37366 23.7676 8.34494C23.9084 8.31621 24.0536 8.31636 24.1944 8.34537C24.3352 8.37439 24.4686 8.43167 24.5866 8.51374C24.7046 8.59582 24.8047 8.70099 24.8809 8.82288C24.9571 8.94477 25.0077 9.08085 25.0298 9.22288C25.0519 9.36492 25.0449 9.50995 25.0093 9.64921C24.9737 9.78847 24.9102 9.91906 24.8226 10.0331C24.7351 10.1471 24.6253 10.2421 24.5 10.3125Z" fill="white"/>
</svg>
