<svg width="50" height="50" viewBox="0 0 50 50" fill="none" xmlns="http://www.w3.org/2000/svg">
<path d="M3.935 13.215L22.685 23.2875C23.315 23.625 24.13 23.785 24.95 23.785C25.77 23.785 26.585 23.625 27.215 23.2875L45.965 13.215C47.1875 12.5575 48.3425 10 46.1 10H3.8025C1.56 10 2.715 12.5575 3.935 13.215V13.215ZM46.5325 18.7225L27.215 28.79C26.365 29.235 25.77 29.2875 24.95 29.2875C24.13 29.2875 23.535 29.235 22.685 28.79C21.835 28.345 4.8525 19.4425 3.465 18.72C2.49 18.21 2.5 18.8075 2.5 19.2675V37.5C2.5 38.55 3.915 40 5 40H45C46.085 40 47.5 38.55 47.5 37.5V19.27C47.5 18.81 47.51 18.2125 46.5325 18.7225V18.7225Z" fill="white"/>
</svg>
