<svg width="30" height="30" viewBox="0 0 30 30" fill="none" xmlns="http://www.w3.org/2000/svg">
<path d="M19.0593 20.1375L21.1593 18.0375C21.4422 17.7582 21.8 17.5669 22.1895 17.4871C22.5789 17.4072 22.9831 17.4421 23.3531 17.5875L25.9125 18.6094C26.2864 18.7611 26.6069 19.0202 26.8338 19.3538C27.0607 19.6875 27.1838 20.0809 27.1875 20.4844V25.1719C27.1853 25.4464 27.1276 25.7176 27.0178 25.9691C26.9081 26.2207 26.7486 26.4475 26.5489 26.6358C26.3492 26.8242 26.1134 26.9701 25.8558 27.0649C25.5982 27.1597 25.3241 27.2014 25.05 27.1875C7.1156 26.0719 3.49685 10.8844 2.81247 5.07187C2.7807 4.78644 2.80973 4.49751 2.89764 4.2241C2.98556 3.95069 3.13036 3.69899 3.32254 3.48557C3.51471 3.27214 3.7499 3.10182 4.01262 2.98581C4.27535 2.8698 4.55966 2.81074 4.84685 2.8125H9.37497C9.77904 2.8137 10.1735 2.93575 10.5077 3.16297C10.8418 3.39018 11.1003 3.71216 11.25 4.0875L12.2718 6.64688C12.4221 7.01538 12.4604 7.41998 12.382 7.81014C12.3037 8.20029 12.1121 8.55871 11.8312 8.84063L9.73122 10.9406C9.73122 10.9406 10.9406 19.125 19.0593 20.1375Z" fill="white"/>
</svg>
