<svg width="30" height="30" viewBox="0 0 30 30" fill="none" xmlns="http://www.w3.org/2000/svg">
<path d="M15 2.5C11.6979 2.54211 8.54287 3.87259 6.20773 6.20773C3.87259 8.54287 2.54211 11.6979 2.5 15C2.51544 16.9236 2.97465 18.8178 3.84189 20.5349C4.70913 22.252 5.96099 23.7458 7.5 24.9V25H7.625C9.74148 26.6219 12.3336 27.5008 15 27.5008C17.6664 27.5008 20.2585 26.6219 22.375 25H22.5V24.9C24.039 23.7458 25.2909 22.252 26.1581 20.5349C27.0254 18.8178 27.4846 16.9236 27.5 15C27.4579 11.6979 26.1274 8.54287 23.7923 6.20773C21.4571 3.87259 18.3021 2.54211 15 2.5ZM10.0875 23.6625C10.27 22.8268 10.7327 22.0786 11.3989 21.542C12.065 21.0055 12.8946 20.7128 13.75 20.7125H16.25C17.1054 20.7128 17.935 21.0055 18.6011 21.542C19.2673 22.0786 19.73 22.8268 19.9125 23.6625C18.4236 24.5385 16.7275 25.0004 15 25.0004C13.2725 25.0004 11.5764 24.5385 10.0875 23.6625ZM22.0125 22.05C21.537 20.9137 20.7364 19.9432 19.7112 19.2604C18.6859 18.5777 17.4818 18.2131 16.25 18.2125H13.75C12.5182 18.2131 11.3141 18.5777 10.2888 19.2604C9.2636 19.9432 8.46297 20.9137 7.9875 22.05C7.05083 21.1287 6.30488 20.0319 5.79227 18.8223C5.27966 17.6126 5.01044 16.3138 5 15C5.03242 12.3579 6.0964 9.83316 7.96478 7.96478C9.83316 6.0964 12.3579 5.03242 15 5C17.6421 5.03242 20.1668 6.0964 22.0352 7.96478C23.9036 9.83316 24.9676 12.3579 25 15C24.9896 16.3138 24.7203 17.6126 24.2077 18.8223C23.6951 20.0319 22.9492 21.1287 22.0125 22.05Z" fill="white"/>
<path d="M15 7.5C14.3392 7.4846 13.6821 7.60341 13.0685 7.84924C12.4549 8.09506 11.8976 8.46279 11.4302 8.93019C10.9628 9.39758 10.5951 9.95493 10.3492 10.5685C10.1034 11.1821 9.9846 11.8392 10 12.5C9.9846 13.1608 10.1034 13.8179 10.3492 14.4315C10.5951 15.0451 10.9628 15.6024 11.4302 16.0698C11.8976 16.5372 12.4549 16.9049 13.0685 17.1508C13.6821 17.3966 14.3392 17.5154 15 17.5C15.6608 17.5154 16.3179 17.3966 16.9315 17.1508C17.5451 16.9049 18.1024 16.5372 18.5698 16.0698C19.0372 15.6024 19.4049 15.0451 19.6508 14.4315C19.8966 13.8179 20.0154 13.1608 20 12.5C20.0154 11.8392 19.8966 11.1821 19.6508 10.5685C19.4049 9.95493 19.0372 9.39758 18.5698 8.93019C18.1024 8.46279 17.5451 8.09506 16.9315 7.84924C16.3179 7.60341 15.6608 7.4846 15 7.5ZM15 15C14.6674 15.0161 14.3352 14.9624 14.0246 14.8425C13.714 14.7225 13.4319 14.5389 13.1965 14.3035C12.9611 14.0681 12.7775 13.786 12.6575 13.4754C12.5376 13.1648 12.4839 12.8326 12.5 12.5C12.4839 12.1674 12.5376 11.8352 12.6575 11.5246C12.7775 11.214 12.9611 10.9319 13.1965 10.6965C13.4319 10.4611 13.714 10.2775 14.0246 10.1575C14.3352 10.0376 14.6674 9.98392 15 10C15.3326 9.98392 15.6648 10.0376 15.9754 10.1575C16.286 10.2775 16.5681 10.4611 16.8035 10.6965C17.0389 10.9319 17.2225 11.214 17.3425 11.5246C17.4624 11.8352 17.5161 12.1674 17.5 12.5C17.5161 12.8326 17.4624 13.1648 17.3425 13.4754C17.2225 13.786 17.0389 14.0681 16.8035 14.3035C16.5681 14.5389 16.286 14.7225 15.9754 14.8425C15.6648 14.9624 15.3326 15.0161 15 15Z" fill="white"/>
</svg>
