<?xml version="1.0" standalone="no"?>
<!DOCTYPE svg PUBLIC "-//W3C//DTD SVG 20010904//EN"
 "http://www.w3.org/TR/2001/REC-SVG-20010904/DTD/svg10.dtd">
<svg version="1.0" xmlns="http://www.w3.org/2000/svg"
 width="320.000000pt" height="320.000000pt" viewBox="0 0 320.000000 320.000000"
 preserveAspectRatio="xMidYMid meet">

<g transform="translate(0.000000,320.000000) scale(0.100000,-0.100000)"
fill="#000000" stroke="none">
<path d="M2010 1941 c0 -102 -4 -172 -10 -176 -5 -3 -20 1 -32 9 -12 9 -31 16
-41 16 -10 0 -69 -30 -133 -66 l-115 -66 3 -141 3 -141 115 -68 c63 -37 120
-67 125 -67 6 0 62 30 125 67 l115 68 3 326 2 326 -27 20 c-35 25 -109 62
-123 62 -6 0 -10 -59 -10 -169z m-37 -356 c32 -22 37 -31 37 -65 0 -43 -13
-61 -61 -80 -29 -12 -36 -12 -68 7 -33 19 -36 25 -39 71 -3 50 -2 51 35 71 49
26 51 26 96 -4z"/>
<path d="M488 1734 l-118 -66 0 -184 c0 -101 3 -184 8 -184 4 0 39 20 77 43
l70 42 3 90 c3 96 11 114 62 135 24 10 33 8 69 -14 l41 -26 0 -94 0 -94 72
-40 c40 -23 76 -38 80 -36 4 3 8 83 8 179 l0 174 -27 19 c-43 29 -209 122
-219 122 -5 0 -62 -30 -126 -66z"/>
<path d="M2465 1739 c-146 -86 -135 -68 -135 -217 0 -110 3 -131 18 -144 28
-25 212 -128 229 -128 16 0 140 67 148 80 3 5 -46 37 -107 73 l-113 65 0 53
c0 52 1 55 38 74 l37 20 38 -21 c32 -19 37 -27 40 -63 2 -23 8 -41 14 -41 5 0
41 19 79 43 67 41 69 43 69 84 0 34 -5 45 -27 61 -47 32 -210 122 -219 121 -5
-1 -54 -28 -109 -60z"/>
<path d="M2548 1559 c-21 -12 -24 -49 -6 -67 28 -28 78 -7 78 33 0 40 -35 56
-72 34z"/>
</g>
</svg>
